<svg width="42" height="42" viewBox="0 0 42 42" fill="none" xmlns="http://www.w3.org/2000/svg">
<path fill-rule="evenodd" clip-rule="evenodd" d="M4 21C4 10.8518 12.2268 2.625 22.375 2.625C32.5232 2.625 40.75 10.8518 40.75 21C40.75 31.1482 32.5232 39.375 22.375 39.375C12.2268 39.375 4 31.1482 4 21ZM24.6156 16.6781C25.1281 16.1655 25.1281 15.3345 24.6156 14.8219C24.103 14.3094 23.272 14.3094 22.7594 14.8219L17.5094 20.0719C16.9969 20.5845 16.9969 21.4155 17.5094 21.9281L22.7594 27.1781C23.272 27.6906 24.103 27.6906 24.6156 27.1781C25.1281 26.6655 25.1281 25.8345 24.6156 25.3219L20.2937 21L24.6156 16.6781Z" fill="#C7CEE0"/>
</svg>
