<svg width="42" height="42" viewBox="0 0 42 42" fill="none" xmlns="http://www.w3.org/2000/svg">
<path fill-rule="evenodd" clip-rule="evenodd" d="M3 21C3 10.8518 11.2268 2.625 21.375 2.625C31.5232 2.625 39.75 10.8518 39.75 21C39.75 31.1482 31.5232 39.375 21.375 39.375C11.2268 39.375 3 31.1482 3 21ZM23.6156 16.6781C24.1281 16.1655 24.1281 15.3345 23.6156 14.8219C23.103 14.3094 22.272 14.3094 21.7594 14.8219L16.5094 20.0719C15.9969 20.5845 15.9969 21.4155 16.5094 21.9281L21.7594 27.1781C22.272 27.6906 23.103 27.6906 23.6156 27.1781C24.1281 26.6655 24.1281 25.8345 23.6156 25.3219L19.2937 21L23.6156 16.6781Z" fill="#94C7FF"/>
</svg>
