<svg width="24" height="24" viewBox="0 0 24 24" fill="none" xmlns="http://www.w3.org/2000/svg">
<g opacity="0.45">
<path d="M3.42871 12.0001C3.42871 16.734 7.26627 20.5716 12.0001 20.5716C16.734 20.5716 20.5716 16.734 20.5716 12.0001C20.5716 7.26627 16.734 3.42871 12.0001 3.42871C7.26627 3.42871 3.42871 7.26627 3.42871 12.0001ZM12.893 7.71443C12.893 8.20754 12.4933 8.60728 12.0001 8.60728C11.507 8.60728 11.1073 8.20754 11.1073 7.71443C11.1073 7.22131 11.507 6.82157 12.0001 6.82157C12.4933 6.82157 12.893 7.22131 12.893 7.71443ZM12.0001 9.85728C12.3946 9.85728 12.7144 10.1771 12.7144 10.5716L12.7144 16.2859C12.7144 16.6803 12.3946 17.0001 12.0001 17.0001C11.6057 17.0001 11.2859 16.6803 11.2859 16.2859L11.2859 10.5716C11.2859 10.1771 11.6057 9.85728 12.0001 9.85728Z" fill="#748BAA"/>
</g>
</svg>
