<svg width="24" height="24" viewBox="0 0 24 24" fill="none" xmlns="http://www.w3.org/2000/svg">
<g opacity="0.3">
<path d="M3.42871 12C3.42871 16.7339 7.26627 20.5714 12.0001 20.5714C16.734 20.5714 20.5716 16.7339 20.5716 12C20.5716 7.26613 16.734 3.42857 12.0001 3.42857C7.26627 3.42857 3.42871 7.26613 3.42871 12ZM12.893 7.71428C12.893 8.20739 12.4933 8.60714 12.0001 8.60714C11.507 8.60714 11.1073 8.20739 11.1073 7.71428C11.1073 7.22117 11.507 6.82142 12.0001 6.82142C12.4933 6.82142 12.893 7.22117 12.893 7.71428ZM12.0001 9.85714C12.3946 9.85714 12.7144 10.1769 12.7144 10.5714L12.7144 16.2857C12.7144 16.6802 12.3946 17 12.0001 17C11.6057 17 11.2859 16.6802 11.2859 16.2857L11.2859 10.5714C11.2859 10.1769 11.6057 9.85714 12.0001 9.85714Z" fill="#B8CDFF"/>
</g>
</svg>
