<svg width="24" height="24" viewBox="0 0 24 24" fill="none" xmlns="http://www.w3.org/2000/svg">
<path d="M3.42847 12C3.42847 16.7339 7.26603 20.5714 11.9999 20.5714C16.7338 20.5714 20.5713 16.7339 20.5713 12C20.5713 7.26615 16.7338 3.42859 11.9999 3.42859C7.26603 3.42859 3.42847 7.26615 3.42847 12ZM12.8928 7.7143C12.8928 8.20741 12.493 8.60716 11.9999 8.60716C11.5068 8.60716 11.107 8.20741 11.107 7.7143C11.107 7.22119 11.5068 6.82145 11.9999 6.82145C12.493 6.82145 12.8928 7.22119 12.8928 7.7143ZM11.9999 9.85716C12.3944 9.85716 12.7142 10.177 12.7142 10.5714L12.7142 16.2857C12.7142 16.6802 12.3944 17 11.9999 17C11.6054 17 11.2856 16.6802 11.2856 16.2857L11.2856 10.5714C11.2856 10.177 11.6054 9.85716 11.9999 9.85716Z" fill="#E6E9EF"/>
</svg>
