<svg width="16" height="16" viewBox="0 0 16 16" fill="none" xmlns="http://www.w3.org/2000/svg">
<path d="M8.00016 1.3335C11.6821 1.3335 14.6668 4.31826 14.6668 8.00016C14.6668 11.6821 11.6821 14.6668 8.00016 14.6668C4.31826 14.6668 1.3335 11.6821 1.3335 8.00016C1.3335 4.31826 4.31826 1.3335 8.00016 1.3335ZM10.1466 5.97994L7.16683 8.95972L5.85372 7.64661C5.65845 7.45135 5.34187 7.45135 5.14661 7.64661C4.95135 7.84187 4.95135 8.15845 5.14661 8.35372L6.81328 10.0204C7.00854 10.2156 7.32512 10.2156 7.52038 10.0204L10.8537 6.68705C11.049 6.49179 11.049 6.17521 10.8537 5.97994C10.6585 5.78468 10.3419 5.78468 10.1466 5.97994Z" fill="#23E78E"/>
</svg>
