<svg width="20" height="20" viewBox="0 0 20 20" fill="none" xmlns="http://www.w3.org/2000/svg">
<path d="M10 1.66666C14.6024 1.66666 18.3334 5.39762 18.3334 9.99999C18.3334 14.6024 14.6024 18.3333 10 18.3333C5.39765 18.3333 1.66669 14.6024 1.66669 9.99999C1.66669 5.39762 5.39765 1.66666 10 1.66666ZM12.6831 7.47472L8.95835 11.1994L7.31696 9.55805C7.07288 9.31397 6.67716 9.31397 6.43308 9.55805C6.189 9.80213 6.189 10.1979 6.43308 10.4419L8.51641 12.5253C8.76049 12.7693 9.15622 12.7693 9.4003 12.5253L13.567 8.3586C13.811 8.11452 13.811 7.71879 13.567 7.47472C13.3229 7.23064 12.9272 7.23064 12.6831 7.47472Z" fill="#7BE5BB"/>
</svg>
