<svg width="26" height="26" viewBox="0 0 26 26" fill="none" xmlns="http://www.w3.org/2000/svg">
<path d="M6.59385 8.39584C7.1077 5.46299 9.66829 3.25 12.7292 3.25C15.79 3.25 18.3506 5.46299 18.8645 8.39584L18.9583 8.39583C21.3516 8.39583 23.2917 10.3359 23.2917 12.7292C23.2917 12.9319 23.2777 13.1313 23.2508 13.3266C22.7589 12.7458 22.1746 12.2458 21.5205 11.8492C21.1552 10.7854 20.1461 10.0208 18.9584 10.0208L18.1392 10.0209C17.706 10.0209 17.349 9.681 17.3277 9.24832C17.2073 6.80468 15.1861 4.875 12.7292 4.875C10.2722 4.875 8.25098 6.80468 8.13067 9.24832C8.10936 9.681 7.75233 10.0209 7.31912 10.0209L6.5 10.0208C5.00423 10.0208 3.79166 11.2334 3.79166 12.7292C3.79166 14.2249 5.00423 15.4375 6.5 15.4375H11.2666C11.0762 15.9534 10.9446 16.4978 10.8797 17.0625H6.5C4.10676 17.0625 2.16666 15.1224 2.16666 12.7292C2.16666 10.3359 4.10676 8.39583 6.50002 8.39583L6.59385 8.39584ZM23.8333 17.875C23.8333 21.1657 21.1657 23.8333 17.875 23.8333C14.5843 23.8333 11.9167 21.1657 11.9167 17.875C11.9167 14.5843 14.5843 11.9167 17.875 11.9167C21.1657 11.9167 23.8333 14.5843 23.8333 17.875ZM21.508 15.3253C21.2965 15.1138 20.9535 15.1138 20.742 15.3253L16.7917 19.2756L15.008 17.492C14.7965 17.2804 14.4535 17.2804 14.242 17.492C14.0304 17.7035 14.0304 18.0465 14.242 18.258L16.4086 20.4247C16.6202 20.6362 16.9631 20.6362 17.1747 20.4247L21.508 16.0913C21.7195 15.8798 21.7195 15.5369 21.508 15.3253Z" fill="#F5FAFF"/>
</svg>
