<svg width="28" height="28" viewBox="0 0 28 28" fill="none" xmlns="http://www.w3.org/2000/svg">
<path d="M7.42719 9.14584C7.94104 6.21299 10.5016 4 13.5625 4C16.6234 4 19.184 6.21299 19.6978 9.14584L19.7917 9.14583C22.1849 9.14583 24.125 11.0859 24.125 13.4792C24.125 13.6819 24.1111 13.8813 24.0841 14.0766C23.5922 13.4958 23.0079 12.9958 22.3538 12.5992C21.9886 11.5354 20.9794 10.7708 19.7917 10.7708L18.9725 10.7709C18.5393 10.7709 18.1823 10.431 18.161 9.99832C18.0407 7.55468 16.0195 5.625 13.5625 5.625C11.1055 5.625 9.08432 7.55468 8.964 9.99832C8.9427 10.431 8.58567 10.7709 8.15246 10.7709L7.33333 10.7708C5.83756 10.7708 4.625 11.9834 4.625 13.4792C4.625 14.9749 5.83756 16.1875 7.33333 16.1875H12.1C11.9096 16.7034 11.7779 17.2478 11.713 17.8125H7.33333C4.9401 17.8125 3 15.8724 3 13.4792C3 11.0859 4.9401 9.14583 7.33336 9.14583L7.42719 9.14584ZM24.6667 18.625C24.6667 21.9157 21.999 24.5833 18.7083 24.5833C15.4176 24.5833 12.75 21.9157 12.75 18.625C12.75 15.3343 15.4176 12.6667 18.7083 12.6667C21.999 12.6667 24.6667 15.3343 24.6667 18.625ZM22.3413 16.0753C22.1298 15.8638 21.7868 15.8638 21.5753 16.0753L17.625 20.0256L15.8413 18.242C15.6298 18.0304 15.2869 18.0304 15.0753 18.242C14.8638 18.4535 14.8638 18.7965 15.0753 19.008L17.242 21.1747C17.4535 21.3862 17.7965 21.3862 18.008 21.1747L22.3413 16.8413C22.5529 16.6298 22.5529 16.2869 22.3413 16.0753Z" fill="#19DDBA"/>
</svg>
