<svg width="28" height="28" viewBox="0 0 28 28" fill="none" xmlns="http://www.w3.org/2000/svg">
<path d="M14.0001 26.0948L3.52075 20.0517L3.52075 7.94829L14.0001 1.90515L24.4794 7.94829L24.4794 20.0517L14.0001 26.0948ZM5.23027 19.0601L14.0001 24.1289L22.7699 19.0601L22.7699 8.93981L14.0001 3.87109L5.23027 8.93981L5.23027 19.0601Z" fill="#4198FB"/>
<path d="M14 22.1553L6.9397 18.0781L6.9397 9.92375L14 5.84656L21.0603 9.92375V18.0781L14 22.1553ZM8.64921 17.0866L14 20.1808L19.3508 17.0866V10.9153L14 7.82105L8.64921 10.9153L8.64921 17.0866Z" fill="#69AEFC"/>
<path d="M14.0011 18.2061L10.3599 16.1034L10.3599 11.898L14.0011 9.79529L17.6424 11.898V16.1034L14.0011 18.2061ZM12.0694 15.1119L14.0011 16.2316L15.9329 15.1119V12.8895L14.0011 11.7698L12.0694 12.8895V15.1119Z" fill="#69AEFC"/>
</svg>
