<svg width="28" height="28" viewBox="0 0 28 28" fill="none" xmlns="http://www.w3.org/2000/svg">
<path fill-rule="evenodd" clip-rule="evenodd" d="M9.625 3.5C10.1082 3.5 10.5 3.89175 10.5 4.375V5.25H17.5V4.375C17.5 3.89175 17.8918 3.5 18.375 3.5C18.8582 3.5 19.25 3.89175 19.25 4.375V5.25H21.875C23.3247 5.25 24.5 6.42525 24.5 7.875V21.875C24.5 23.3247 23.3247 24.5 21.875 24.5H6.125C4.67525 24.5 3.5 23.3247 3.5 21.875V7.875C3.5 6.42525 4.67525 5.25 6.125 5.25H8.75V4.375C8.75 3.89175 9.14175 3.5 9.625 3.5ZM5.25 10.5L22.75 10.5V7.875C22.75 7.39175 22.3582 7 21.875 7H19.25V7.875C19.25 8.35825 18.8582 8.75 18.375 8.75C17.8918 8.75 17.5 8.35825 17.5 7.875V7H10.5V7.875C10.5 8.35825 10.1082 8.75 9.625 8.75C9.14175 8.75 8.75 8.35825 8.75 7.875V7H6.125C5.64175 7 5.25 7.39175 5.25 7.875V10.5Z" fill="#69AEFC"/>
</svg>
