<svg width="16" height="16" viewBox="0 0 16 16" fill="none" xmlns="http://www.w3.org/2000/svg">
<path fill-rule="evenodd" clip-rule="evenodd" d="M6.5728 1.72062C6.89678 1.42064 7.38046 1 8 1C8.61954 1 9.10322 1.42064 9.4272 1.72062C9.50015 1.78817 9.56539 1.85037 9.62719 1.90931C9.7267 2.0042 9.8174 2.09069 9.91706 2.17731C10.0687 2.30906 10.1893 2.39312 10.2915 2.43805C10.4095 2.48417 10.5651 2.51272 10.7692 2.52891C10.9104 2.54011 11.0476 2.5441 11.1977 2.54846C11.2759 2.55073 11.3576 2.55311 11.4453 2.55666C11.8824 2.57438 12.5218 2.61472 12.9536 3.04645C13.3853 3.47817 13.4256 4.11765 13.4433 4.55475C13.4469 4.64231 13.4493 4.72399 13.4515 4.80218C13.4559 4.95226 13.4599 5.08959 13.4711 5.23078C13.4873 5.43492 13.5158 5.59052 13.5619 5.70851C13.6069 5.81073 13.6909 5.93134 13.8227 6.08294C13.9093 6.1826 13.9957 6.27323 14.0906 6.37274C14.1496 6.43457 14.2118 6.49982 14.2794 6.5728C14.5794 6.89678 15 7.38046 15 8C15 8.61954 14.5794 9.10322 14.2794 9.4272C14.2119 9.50012 14.1497 9.56533 14.0908 9.62712C13.9959 9.72663 13.9093 9.8174 13.8227 9.91706C13.6909 10.0687 13.6069 10.1893 13.5619 10.2915C13.5158 10.4095 13.4873 10.5651 13.4711 10.7692C13.4599 10.9104 13.4559 11.0476 13.4515 11.1977C13.4493 11.2759 13.4469 11.3577 13.4433 11.4453C13.4256 11.8824 13.3853 12.5218 12.9536 12.9536C12.5218 13.3853 11.8824 13.4256 11.4453 13.4433C11.3577 13.4469 11.276 13.4493 11.1978 13.4515C11.0477 13.4559 10.9104 13.4599 10.7692 13.4711C10.5651 13.4873 10.4095 13.5158 10.2915 13.5619C10.1893 13.6069 10.0687 13.6909 9.91706 13.8227C9.8174 13.9093 9.72677 13.9957 9.62726 14.0906C9.56547 14.1495 9.50012 14.2119 9.4272 14.2794C9.10322 14.5794 8.61954 15 8 15C7.38046 15 6.89678 14.5794 6.5728 14.2794C6.49982 14.2118 6.43457 14.1496 6.37274 14.0906C6.27323 13.9957 6.1826 13.9093 6.08294 13.8227C5.93134 13.6909 5.81073 13.6069 5.70851 13.5619C5.59052 13.5158 5.43492 13.4873 5.23078 13.4711C5.08959 13.4599 4.95238 13.4559 4.8023 13.4515C4.72411 13.4493 4.64231 13.4469 4.55475 13.4433C4.11765 13.4256 3.47817 13.3853 3.04645 12.9536C2.61472 12.5218 2.57438 11.8824 2.55666 11.4453C2.55311 11.3576 2.55073 11.2759 2.54846 11.1977C2.5441 11.0476 2.54011 10.9104 2.52891 10.7692C2.51272 10.5651 2.48417 10.4095 2.43805 10.2915C2.39312 10.1893 2.30906 10.0687 2.17731 9.91706C2.09069 9.8174 2.00426 9.72677 1.90938 9.62727C1.85046 9.56549 1.78813 9.50012 1.72062 9.4272C1.42064 9.10322 1 8.61954 1 8C1 7.38046 1.42064 6.89678 1.72062 6.5728C1.78819 6.49982 1.85041 6.43457 1.90937 6.37274C2.00426 6.27324 2.09069 6.18259 2.17731 6.08294C2.30906 5.93135 2.39312 5.81074 2.43805 5.70852C2.48417 5.59053 2.51272 5.43492 2.52891 5.23078C2.54011 5.08959 2.5441 4.95238 2.54846 4.80231C2.55073 4.72409 2.55311 4.64234 2.55666 4.55475C2.57438 4.11765 2.61472 3.47817 3.04645 3.04645C3.47817 2.61472 4.11765 2.57438 4.55475 2.55666C4.64234 2.55311 4.72405 2.55073 4.80227 2.54846C4.95235 2.5441 5.08959 2.54011 5.23078 2.52891C5.43492 2.51272 5.59053 2.48417 5.70852 2.43805C5.81074 2.39312 5.93135 2.30906 6.08294 2.17731C6.18259 2.09069 6.27322 2.00427 6.37273 1.90938C6.43455 1.85043 6.49982 1.78819 6.5728 1.72062ZM9.9 6.3C10.0657 6.07909 10.0209 5.76569 9.8 5.6C9.57909 5.43431 9.26569 5.47909 9.1 5.7L6.1 9.7C5.93431 9.92091 5.97909 10.2343 6.2 10.4C6.42091 10.5657 6.73431 10.5209 6.9 10.3L9.9 6.3ZM8.5 9.5C8.5 8.94772 8.94772 8.5 9.5 8.5C10.0523 8.5 10.5 8.94772 10.5 9.5C10.5 10.0523 10.0523 10.5 9.5 10.5C8.94772 10.5 8.5 10.0523 8.5 9.5ZM6.5 5.5C5.94772 5.5 5.5 5.94772 5.5 6.5C5.5 7.05228 5.94772 7.5 6.5 7.5C7.05228 7.5 7.5 7.05228 7.5 6.5C7.5 5.94772 7.05228 5.5 6.5 5.5Z" fill="#B8CDFF"/>
</svg>
