<svg width="24" height="24" viewBox="0 0 24 24" fill="none" xmlns="http://www.w3.org/2000/svg">
<path d="M3.42859 12C3.42859 16.7339 7.26615 20.5714 12 20.5714C16.7339 20.5714 20.5714 16.7339 20.5714 12C20.5714 7.26612 16.7339 3.42856 12 3.42856C7.26615 3.42856 3.42859 7.26612 3.42859 12ZM12.8929 7.71427C12.8929 8.20738 12.4931 8.60713 12 8.60713C11.5069 8.60713 11.1072 8.20738 11.1072 7.71427C11.1072 7.22116 11.5069 6.82142 12 6.82142C12.4931 6.82142 12.8929 7.22116 12.8929 7.71427ZM12 9.85713C12.3945 9.85713 12.7143 10.1769 12.7143 10.5714L12.7143 16.2857C12.7143 16.6802 12.3945 17 12 17C11.6055 17 11.2857 16.6802 11.2857 16.2857L11.2857 10.5714C11.2857 10.1769 11.6055 9.85713 12 9.85713Z" fill="#B8CDFF"/>
</svg>
