<svg width="24" height="24" viewBox="0 0 24 24" fill="none" xmlns="http://www.w3.org/2000/svg">
<path d="M3.42856 12.0001C3.42856 16.734 7.26612 20.5716 12 20.5716C16.7339 20.5716 20.5714 16.734 20.5714 12.0001C20.5714 7.26627 16.7339 3.42871 12 3.42871C7.26612 3.42871 3.42856 7.26627 3.42856 12.0001ZM12.8928 7.71443C12.8928 8.20754 12.4931 8.60728 12 8.60728C11.5069 8.60728 11.1071 8.20754 11.1071 7.71443C11.1071 7.22131 11.5069 6.82157 12 6.82157C12.4931 6.82157 12.8928 7.22131 12.8928 7.71443ZM12 9.85728C12.3945 9.85728 12.7143 10.1771 12.7143 10.5716L12.7143 16.2859C12.7143 16.6803 12.3945 17.0001 12 17.0001C11.6055 17.0001 11.2857 16.6803 11.2857 16.2859L11.2857 10.5716C11.2857 10.1771 11.6055 9.85728 12 9.85728Z" fill="#D6E3FF"/>
</svg>
