<svg width="64" height="45" viewBox="0 0 64 45" fill="none" xmlns="http://www.w3.org/2000/svg">
<g clip-path="url(#clip0_90_436)">
<path d="M55.7949 22.0656C58.5206 27.4756 56.3446 34.071 50.9346 36.7967C45.5246 39.5224 38.9292 37.3464 36.2035 31.9364C33.4778 26.5264 35.6538 19.9311 41.0638 17.2053C46.4738 14.4796 53.0691 16.6556 55.7949 22.0656Z" stroke="white" stroke-width="1.5" stroke-linecap="round" stroke-linejoin="round"/>
<path fill-rule="evenodd" clip-rule="evenodd" d="M44.2257 21.8033C43.9694 21.6123 43.6272 21.5825 43.3418 21.7263C43.0564 21.8701 42.8767 22.1628 42.8777 22.4824L42.8951 28.1424C42.8959 28.408 43.0217 28.6577 43.2346 28.8164L47.773 32.1985C48.0293 32.3895 48.3714 32.4193 48.6569 32.2755C48.9423 32.1317 49.1219 31.839 49.121 31.5194L49.1036 25.8594C49.1028 25.5938 48.977 25.3441 48.7641 25.1854L44.2257 21.8033ZM46.8006 27.2652C46.9466 26.8227 46.7062 26.3456 46.2637 26.1996C45.8212 26.0536 45.3441 26.294 45.1981 26.7365C45.0521 27.179 45.2925 27.6561 45.735 27.8021C46.1775 27.9482 46.6546 27.7078 46.8006 27.2652Z" fill="white"/>
</g>
<path fill-rule="evenodd" clip-rule="evenodd" d="M9.57884 8.57884C17.2673 0.890388 29.7327 0.890388 37.4212 8.57884C45.1096 16.2673 45.1096 28.7327 37.4212 36.4212C29.7327 44.1096 17.2673 44.1096 9.57884 36.4212C1.89039 28.7327 1.89039 16.2673 9.57884 8.57884ZM30.8003 16.9785C30.9687 16.4732 30.8372 15.916 30.4606 15.5394C30.0839 15.1628 29.5268 15.0313 29.0215 15.1997L20.0722 18.1828C19.6523 18.3228 19.3228 18.6523 19.1828 19.0722L16.1997 28.0215C16.0313 28.5268 16.1628 29.0839 16.5394 29.4606C16.916 29.8372 17.4732 29.9687 17.9785 29.8003L26.9278 26.8172C27.3477 26.6772 27.6772 26.3477 27.8172 25.9278L30.8003 16.9785ZM24.9062 22.5C24.9062 23.2766 24.2766 23.9063 23.5 23.9063C22.7233 23.9063 22.0937 23.2766 22.0937 22.5C22.0937 21.7234 22.7233 21.0938 23.5 21.0938C24.2766 21.0938 24.9062 21.7234 24.9062 22.5Z" fill="white"/>
<defs>
<clipPath id="clip0_90_436">
<rect width="27" height="27" fill="white" transform="translate(28.9492 35.5913) rotate(-71.7405)"/>
</clipPath>
</defs>
</svg>
