<svg width="28" height="28" viewBox="0 0 28 28" fill="none" xmlns="http://www.w3.org/2000/svg">
<path d="M1 14C1 6.8203 6.8203 1 14 1V1C21.1797 1 27 6.8203 27 14V14C27 21.1797 21.1797 27 14 27V27C6.8203 27 1 21.1797 1 14V14Z" fill="#FCFCFD"/>
<path fill-rule="evenodd" clip-rule="evenodd" d="M14 28C6.26801 28 0 21.732 0 14C0 6.26801 6.26801 0 14 0C21.732 0 28 6.26801 28 14C28 21.732 21.732 28 14 28ZM14 1C6.8203 1 1 6.8203 1 14C1 21.1797 6.8203 27 14 27C21.1797 27 27 21.1797 27 14C27 6.8203 21.1797 1 14 1Z" fill="#F2F4F7"/>
<path d="M7.75 14C7.75 13.8281 7.78385 13.6667 7.85156 13.5156C7.91927 13.3646 8.00781 13.2344 8.11719 13.125C8.23177 13.0104 8.36458 12.9193 8.51562 12.8516C8.66667 12.7839 8.82812 12.75 9 12.75C9.17188 12.75 9.33333 12.7839 9.48438 12.8516C9.63542 12.9193 9.76562 13.0104 9.875 13.125C9.98958 13.2344 10.0807 13.3646 10.1484 13.5156C10.2161 13.6667 10.25 13.8281 10.25 14C10.25 14.1719 10.2161 14.3333 10.1484 14.4844C10.0807 14.6354 9.98958 14.7682 9.875 14.8828C9.76562 14.9922 9.63542 15.0807 9.48438 15.1484C9.33333 15.2161 9.17188 15.25 9 15.25C8.82812 15.25 8.66667 15.2161 8.51562 15.1484C8.36458 15.0807 8.23177 14.9922 8.11719 14.8828C8.00781 14.7682 7.91927 14.6354 7.85156 14.4844C7.78385 14.3333 7.75 14.1719 7.75 14ZM12.75 14C12.75 13.8281 12.7839 13.6667 12.8516 13.5156C12.9193 13.3646 13.0078 13.2344 13.1172 13.125C13.2318 13.0104 13.3646 12.9193 13.5156 12.8516C13.6667 12.7839 13.8281 12.75 14 12.75C14.1719 12.75 14.3333 12.7839 14.4844 12.8516C14.6354 12.9193 14.7656 13.0104 14.875 13.125C14.9896 13.2344 15.0807 13.3646 15.1484 13.5156C15.2161 13.6667 15.25 13.8281 15.25 14C15.25 14.1719 15.2161 14.3333 15.1484 14.4844C15.0807 14.6354 14.9896 14.7682 14.875 14.8828C14.7656 14.9922 14.6354 15.0807 14.4844 15.1484C14.3333 15.2161 14.1719 15.25 14 15.25C13.8281 15.25 13.6667 15.2161 13.5156 15.1484C13.3646 15.0807 13.2318 14.9922 13.1172 14.8828C13.0078 14.7682 12.9193 14.6354 12.8516 14.4844C12.7839 14.3333 12.75 14.1719 12.75 14ZM17.75 14C17.75 13.8281 17.7839 13.6667 17.8516 13.5156C17.9193 13.3646 18.0078 13.2344 18.1172 13.125C18.2318 13.0104 18.3646 12.9193 18.5156 12.8516C18.6667 12.7839 18.8281 12.75 19 12.75C19.1719 12.75 19.3333 12.7839 19.4844 12.8516C19.6354 12.9193 19.7656 13.0104 19.875 13.125C19.9896 13.2344 20.0807 13.3646 20.1484 13.5156C20.2161 13.6667 20.25 13.8281 20.25 14C20.25 14.1719 20.2161 14.3333 20.1484 14.4844C20.0807 14.6354 19.9896 14.7682 19.875 14.8828C19.7656 14.9922 19.6354 15.0807 19.4844 15.1484C19.3333 15.2161 19.1719 15.25 19 15.25C18.8281 15.25 18.6667 15.2161 18.5156 15.1484C18.3646 15.0807 18.2318 14.9922 18.1172 14.8828C18.0078 14.7682 17.9193 14.6354 17.8516 14.4844C17.7839 14.3333 17.75 14.1719 17.75 14Z" fill="#C5CFE7"/>
</svg>
