<svg width="28" height="28" viewBox="0 0 28 28" fill="none" xmlns="http://www.w3.org/2000/svg">
<circle cx="14" cy="14" r="13.5" fill="#FCFCFD" stroke="#D7DBE0"/>
<path fill-rule="evenodd" clip-rule="evenodd" d="M9.5 15C10.3284 15 11 14.3284 11 13.5C11 12.6716 10.3284 12 9.5 12C8.67157 12 8 12.6716 8 13.5C8 14.3284 8.67157 15 9.5 15Z" fill="#A4ACB7"/>
<path fill-rule="evenodd" clip-rule="evenodd" d="M14 15C14.8284 15 15.5 14.3284 15.5 13.5C15.5 12.6716 14.8284 12 14 12C13.1716 12 12.5 12.6716 12.5 13.5C12.5 14.3284 13.1716 15 14 15Z" fill="#A4ACB7"/>
<path fill-rule="evenodd" clip-rule="evenodd" d="M18.5 15C19.3284 15 20 14.3284 20 13.5C20 12.6716 19.3284 12 18.5 12C17.6716 12 17 12.6716 17 13.5C17 14.3284 17.6716 15 18.5 15Z" fill="#A4ACB7"/>
</svg>
