<svg width="12" height="12" viewBox="0 0 12 12" fill="none" xmlns="http://www.w3.org/2000/svg">
<path d="M3.35158 3.24844L1.44864 5.15139C0.98001 5.62002 0.980011 6.37982 1.44864 6.84844L3.35158 8.75139C3.82021 9.22002 4.58001 9.22002 5.04864 8.75139L6.95158 6.84844C7.42021 6.37982 7.42021 5.62002 6.95158 5.15139L5.04864 3.24844C4.58001 2.77982 3.82021 2.77982 3.35158 3.24844ZM1.8729 5.57565L3.77585 3.67271C4.01016 3.43839 4.39006 3.43839 4.62438 3.67271L6.52732 5.57565C6.76163 5.80997 6.76163 6.18987 6.52732 6.42418L4.62438 8.32712C4.39006 8.56144 4.01016 8.56144 3.77585 8.32712L1.8729 6.42418C1.63859 6.18987 1.63859 5.80997 1.8729 5.57565ZM6.95159 8.75139L6.42438 8.22418L6.84865 7.79992L7.37586 8.32712C7.61017 8.56144 7.99007 8.56144 8.22438 8.32712L10.1273 6.42418C10.3616 6.18987 10.3616 5.80997 10.1273 5.57565L8.22438 3.67271C7.99007 3.43839 7.61017 3.43839 7.37585 3.67271L6.84865 4.19992L6.42438 3.77565L6.95159 3.24844C7.42022 2.77982 8.18002 2.77982 8.64865 3.24844L10.5516 5.15139C11.0202 5.62002 11.0202 6.37982 10.5516 6.84844L8.64865 8.75139C8.18002 9.22002 7.42022 9.22002 6.95159 8.75139Z" fill="#6280A7"/>
</svg>
